<svg xmlns="http://www.w3.org/2000/svg" viewBox="0 0 100 100"><rect width="100" height="100" rx="22" fill="#121a1b"/><path transform="translate(12 37) scale(0.0725)" fill="#c6e08d" d="M183.34,348.18c-35.43,0-67.06-7.53-94.95-22.58-27.89-15.37-49.69-36.23-65.36-62.58C7.69,236.36,0,206.72,0,174.09s7.69-62.11,23.03-88.46c15.67-26.67,37.47-47.52,65.36-62.58C116.28,7.69,147.91,0,183.34,0c31.95,0,59.7,6.11,83.2,18.35,23.79,12.23,42.94,28.08,57.34,47.52,14.4,19.45,24.77,40.62,31.01,63.52h-89.29c-6.27-13.8-16.47-25.41-30.57-34.82-13.78-9.72-31.01-14.59-51.68-14.59-17.88,0-33.84,3.92-47.95,11.76-13.78,7.85-24.63,18.98-32.46,33.41-7.51,14.12-11.28,30.43-11.28,48.93s3.77,34.97,11.28,49.41c7.83,14.12,18.68,25.09,32.46,32.94,14.11,7.84,30.07,11.76,47.95,11.76,23.18,0,41.82-5.49,55.93-16.47,14.11-10.98,23.65-24.31,28.69-39.99h89.29c-6.56,24.16-17.23,46.58-31.95,67.29-14.73,20.39-34.17,37.01-58.28,49.87-23.83,12.86-51.72,19.29-83.67,19.29ZM561.84,348.18c-35.11,0-66.59-7.84-94.48-23.52-27.89-15.69-49.69-36.86-65.36-63.52-15.67-26.66-23.5-55.68-23.5-87.05s7.83-60.38,23.5-87.05c15.67-26.66,37.47-47.84,65.36-63.52,27.89-15.68,59.37-23.52,94.48-23.52s66.59,7.84,94.48,23.52c27.89,15.69,49.65,36.86,65.32,63.52,15.67,26.66,23.5,55.68,23.5,87.05s-7.83,60.38-23.5,87.05c-15.67,26.66-37.43,47.84-65.32,63.52-27.89,15.68-59.41,23.52-94.48,23.52ZM561.84,268.2c17.84,0,33.69-3.92,47.48-11.76,14.11-7.85,24.92-18.82,32.42-32.94,7.83-14.43,11.75-30.9,11.75-49.41s-3.92-34.82-11.75-48.93c-7.51-14.43-18.32-25.56-32.42-33.41-13.78-7.84-29.63-11.76-47.48-11.76s-33.84,3.92-47.95,11.76c-13.82,7.85-24.63,18.98-32.46,33.41-7.51,14.12-11.28,30.43-11.28,48.93s3.77,34.97,11.28,49.41c7.83,14.12,18.64,25.09,32.46,32.94,14.11,7.84,30.07,11.76,47.95,11.76ZM907.16,348.18c-29.45,0-54.55-5.33-75.22-16-20.38-10.66-36.34-24.47-47.95-41.4-11.28-16.94-18.79-35.45-22.56-55.52h89.29c3.16,10.35,9.43,19.29,18.82,26.82,9.72,7.22,22.23,10.82,37.61,10.82,10.66,0,19.91-1.72,27.71-5.18,7.87-3.76,13.82-8.62,17.88-14.58,4.06-6.27,6.09-13.02,6.09-20.23s-2.03-13.33-6.09-19.29c-4.06-6.27-10.01-11.29-17.88-15.06-7.8-3.76-17.05-5.65-27.71-5.65h-75.22v-56.46l75.22-47.05v-4.71h-126.94V9.41h246.81v75.28l-72.86,44.7-5.19,1.88v5.64l.94-.47c18.5,0,35.11,4.23,49.83,12.7,15.05,8.47,26.8,20.08,35.25,34.82,8.78,14.74,13.17,31.05,13.17,48.93,0,21.33-5.66,40.78-16.94,58.35-11.28,17.57-27.56,31.53-48.89,41.88-21.29,10.04-46.35,15.06-75.19,15.06Z"/></svg>
